<svg viewBox="0 0 64 64" fill="none" xmlns="http://www.w3.org/2000/svg">

<symbol id="antenna" viewBox="0 0 64 64" width="64" height="64">
<path d="M61.5463 44.1952L44.6599 27.1851L46.534 17.9541C47.0176 18.1429 47.5318 18.2416 48.0508 18.2453H48.0636C50.4482 18.2735 52.404 16.3633 52.4323 13.9788C52.4606 11.5943 50.5503 9.6384 48.1658 9.61013C45.7812 9.582 43.8254 11.4921 43.7971 13.8767C43.7911 14.3869 43.8755 14.8941 44.0466 15.3749L34.1266 16.5856L17.9452 0.32C17.7467 0.117467 17.4757 0.00226667 17.1921 0C16.9121 0.00146667 16.644 0.112933 16.4455 0.3104L13.4204 3.3184C13.004 3.73493 13.004 4.41013 13.4204 4.82667L15.0481 6.47787C8.74201 18.0737 10.7903 32.4335 20.0871 41.8037C20.1724 41.8853 20.2713 41.9513 20.3793 41.9989C20.3121 42.3599 20.2771 42.7261 20.2748 43.0933V55.4667H7.47481C4.53081 55.4701 2.14495 57.856 2.14148 60.8V62.9333C2.14148 63.5224 2.61908 64 3.20815 64H52.2748C52.8639 64 53.3415 63.5224 53.3415 62.9333V60.8C53.338 57.856 50.9522 55.4701 48.0082 55.4667H35.2082V49.9829C37.2134 50.4035 39.2564 50.6179 41.3052 50.6229C46.2215 50.6176 51.0595 49.392 55.3852 47.056L57.0215 48.7019C57.22 48.9044 57.491 49.0196 57.7746 49.0219C58.0546 49.0204 58.3227 48.9089 58.5212 48.7115L61.5463 45.7035C61.9627 45.2869 61.9627 44.6117 61.5463 44.1952ZM46.5596 12.4661C47.395 11.6352 48.7458 11.6389 49.5766 12.4743C50.4075 13.3096 50.4038 14.6604 49.5684 15.4912C49.1686 15.8889 48.6275 16.1121 48.0635 16.112H48.0571C46.879 16.1059 45.9287 15.1459 45.9348 13.9676C45.9378 13.4036 46.1639 12.8639 46.5638 12.4661H46.5596ZM44.0487 19.4752L42.8519 25.3664L40.5009 23.0016L44.0487 19.4752ZM42.837 17.6715L38.997 21.4891L36.0263 18.5024L42.837 17.6715ZM48.0082 57.6C49.7755 57.6 51.2082 59.0327 51.2082 60.8V61.8667H4.27481V60.8C4.27481 59.0327 5.70748 57.6 7.47481 57.6H48.0082ZM33.0748 53.3333V55.4667H22.4081V53.3333H33.0748ZM22.4081 51.2V43.0933C22.4081 40.5056 24.8007 38.4 27.7415 38.4C30.6823 38.4 33.0748 40.5056 33.0748 43.0933V51.2H22.4081ZM35.2082 47.808V43.0933C35.2082 39.3291 31.8588 36.2667 27.7415 36.2667C25.0793 36.2259 22.59 37.5809 21.1793 39.8389C13.0639 31.2913 11.2364 18.5485 16.6221 8.06467L53.8258 45.4816C48.081 48.404 41.4955 49.2268 35.2082 47.808ZM57.7863 46.4405L56.2834 44.9291L17.1815 5.59147L15.6721 4.07893L17.1815 2.57493L33.0513 18.5344C33.0588 18.5344 33.0631 18.5483 33.0706 18.5536L59.2999 44.9365L57.7863 46.4405Z" fill="#2E2F42"/>
<path d="M27.7511 40.5333H27.7415C25.9742 40.5306 24.5394 41.9612 24.5367 43.7285C24.534 45.4958 25.9646 46.9306 27.7319 46.9333H27.7415C29.5088 46.936 30.9436 45.5054 30.9463 43.7381C30.9489 41.9708 29.5184 40.536 27.7511 40.5333ZM28.4978 44.4896C28.297 44.6893 28.0248 44.801 27.7415 44.8C27.1524 44.7969 26.6774 44.3169 26.6804 43.7278C26.6819 43.4458 26.795 43.176 26.9948 42.977C27.1934 42.7796 27.4615 42.6681 27.7415 42.6666C28.3306 42.6697 28.8056 43.1497 28.8026 43.7388C28.8011 44.0208 28.688 44.2906 28.4882 44.4896H28.4978Z" fill="#4D5AE5"/>
</symbol>



<symbol id="clock" viewBox="0 0 64 64" width="64" height="64" > 
<g clip-path="url(#clip0_302815_4220)">
<path d="M62.5933 30.6025C62.5899 13.6978 48.8828 -0.00341734 31.9775 6.39362e-07C15.0728 0.00341861 1.37158 13.7109 1.375 30.6157C1.37793 43.9316 9.98877 55.7178 22.6738 59.7681C22.7949 59.8062 22.9209 59.8257 23.0474 59.8252C23.2886 59.8247 23.5249 59.7603 23.7324 59.6377C24.0024 59.478 24.2041 59.2241 24.2988 58.9248L32.0288 34.4248C34.1421 34.4141 35.8462 32.6919 35.835 30.5791C35.8242 28.4658 34.1025 26.7617 31.9893 26.7725C31.4209 26.7749 30.8599 26.9058 30.3491 27.1553L20.1372 16.9419C19.6304 16.4526 18.8232 16.4668 18.334 16.9731C17.8564 17.4678 17.8564 18.251 18.334 18.7456L28.5405 28.9639C27.7573 30.5625 28.2051 32.4922 29.6133 33.582L22.248 56.9277C7.69238 51.5659 0.239258 35.4199 5.60108 20.8643C10.9629 6.30859 27.1089 -1.14453 41.6646 4.21729C56.2202 9.5791 63.6733 25.7256 58.3115 40.2808C55.6919 47.3921 50.3096 53.1431 43.3872 56.2275L42.5913 52.479C42.4458 51.79 41.7686 51.3496 41.0796 51.4956C40.8623 51.542 40.6606 51.6441 40.4946 51.792L32.8208 58.6431C32.2944 59.1113 32.2476 59.9175 32.7163 60.4439C32.8687 60.6148 33.064 60.7417 33.2827 60.8115L43.0801 63.9385C43.7505 64.1538 44.4688 63.7852 44.6841 63.1143C44.7524 62.9024 44.7637 62.6768 44.7178 62.459L43.9356 58.7808C55.2642 54.0049 62.6196 42.8965 62.5933 30.6025ZM31.9844 29.3272C32.6885 29.3272 33.2598 29.8984 33.2598 30.6025C33.2598 31.3071 32.6885 31.8779 31.9844 31.8779C31.2798 31.8779 30.709 31.3071 30.709 30.6025C30.709 29.8984 31.2798 29.3272 31.9844 29.3272ZM36.1851 59.0552L40.5532 55.1587L41.7588 60.8394L36.1851 59.0552Z" fill="#2E2F42"/>
<path d="M30.709 6.37012V8.9209C30.709 9.62549 31.2798 10.1963 31.9844 10.1963C32.6885 10.1963 33.2598 9.62549 33.2598 8.9209V6.37012C33.2598 5.66602 32.6885 5.09473 31.9844 5.09473C31.2798 5.09473 30.709 5.66602 30.709 6.37012Z" fill="#4D5AE5"/>
<path d="M7.75195 29.3271C7.04736 29.3271 6.47656 29.8984 6.47656 30.6025C6.47656 31.3071 7.04736 31.8779 7.75195 31.8779H10.3027C11.0073 31.8779 11.5781 31.3071 11.5781 30.6025C11.5781 29.8984 11.0073 29.3271 10.3027 29.3271H7.75195Z" fill="#4D5AE5"/>
<path d="M56.2162 31.8779C56.9208 31.8779 57.4916 31.3071 57.4916 30.6025C57.4916 29.8984 56.9208 29.3271 56.2162 29.3271H53.6655C52.9614 29.3271 52.3901 29.8984 52.3901 30.6025C52.3901 31.3071 52.9614 31.8779 53.6655 31.8779H56.2162Z" fill="#4D5AE5"/>
</g>
<defs>
<clipPath id="clip0_302815_4220">
    <rect width="64" height="64" fill="white"/>
</clipPath>
</defs>
</symbol>



<symbol id="vector" viewBox="0 0 64 64" width="64" height="64" > 
<g clip-path="url(#clip0_302815_4209)">
<path d="M29.851 29.9292H31.9833V39.5242H29.851V29.9292Z" fill="#4D5AE5"/>
<path d="M38.3799 34.1936H40.5121V39.5242H38.3799V34.1936Z" fill="#4D5AE5"/>
<path d="M21.3222 37.392H23.4544V39.5242H21.3222V37.392Z" fill="#4D5AE5"/>
<path d="M14.9255 36.3258H17.0577V39.5241H14.9255V36.3258Z" fill="#4D5AE5"/>
<path d="M3.19833 56.5819H54.3715C56.1378 56.5819 57.5699 55.1499 57.5699 53.3836V49.1192C57.5699 47.3529 56.1378 45.9209 54.3715 45.9209H53.3054V19.3343L59.3611 13.5977C60.7666 14.2905 62.4678 13.8699 63.3876 12.6003C64.308 11.3312 64.1789 9.58364 63.0826 8.46339C61.9863 7.34314 60.2424 7.17604 58.953 8.06776C57.6641 8.96 57.206 10.6513 57.8681 12.0719L53.3054 16.3973V13.9376C53.3054 12.1713 51.8734 10.7393 50.1071 10.7393H7.46276C5.6965 10.7393 4.26443 12.1713 4.26443 13.9376V45.9209H3.19833C1.43206 45.9209 0 47.3529 0 49.1192V53.3836C0 55.1499 1.43206 56.5819 3.19833 56.5819ZM60.7682 9.67317C61.3569 9.67317 61.8343 10.1505 61.8343 10.7393C61.8343 11.328 61.3569 11.8054 60.7682 11.8054C60.1794 11.8054 59.7021 11.328 59.7021 10.7393C59.7021 10.1505 60.1794 9.67317 60.7682 9.67317ZM6.39665 13.9376C6.39665 13.3489 6.874 12.8715 7.46276 12.8715H50.1071C50.6958 12.8715 51.1732 13.3489 51.1732 13.9376V18.4149L49.041 20.441V16.0698C49.041 15.4811 48.5636 15.0037 47.9749 15.0037H9.59498C9.00622 15.0037 8.52887 15.4811 8.52887 16.0698V42.7225C8.52887 43.3113 9.00622 43.7886 9.59498 43.7886H47.9749C48.5636 43.7886 49.041 43.3113 49.041 42.7225V23.3738L51.1732 21.3535V45.9209H6.39665V13.9376ZM15.9916 27.797C14.5492 27.7929 13.2826 28.7538 12.899 30.1442C12.5153 31.5346 13.1093 33.0094 14.3498 33.7455C15.5898 34.4815 17.1697 34.2967 18.2061 33.2936L21.912 35.1531C22.3425 35.3686 22.8646 35.2676 23.1847 34.9079L31.0624 26.0453L38.8062 31.848C39.2216 32.1593 39.8016 32.126 40.1784 31.7694L46.9088 25.3941V41.6564H10.6611V17.1359H46.9088V22.4566L39.3658 29.5997L31.5569 23.7455C31.1134 23.4134 30.4892 23.4758 30.1207 23.8897L22.1348 32.8751L19.1493 31.3821C19.1712 31.2541 19.1847 31.125 19.19 30.9953C19.19 29.2291 17.7579 27.797 15.9916 27.797ZM17.0577 30.9953C17.0577 31.5841 16.5804 32.0615 15.9916 32.0615C15.4029 32.0615 14.9255 31.5841 14.9255 30.9953C14.9255 30.4066 15.4029 29.9292 15.9916 29.9292C16.5804 29.9292 17.0577 30.4066 17.0577 30.9953ZM23.4544 48.0531H34.1155V49.1192C34.1155 49.7079 33.6381 50.1853 33.0494 50.1853H24.5205C23.9317 50.1853 23.4544 49.7079 23.4544 49.1192V48.0531ZM2.13222 49.1192C2.13222 48.5304 2.60957 48.0531 3.19833 48.0531H21.3222V49.1192C21.3222 50.8855 22.7542 52.3175 24.5205 52.3175H33.0494C34.8156 52.3175 36.2477 50.8855 36.2477 49.1192V48.0531H54.3715C54.9603 48.0531 55.4376 48.5304 55.4376 49.1192V53.3836C55.4376 53.9724 54.9603 54.4497 54.3715 54.4497H3.19833C2.60957 54.4497 2.13222 53.9724 2.13222 53.3836V49.1192Z" fill="#2E2F42"/>
</g>
<defs>
<clipPath id="clip0_302815_4209">
<rect width="64" height="64" fill="white"/>
</clipPath>
</defs>
</symbol>




<symbol id="astronot" viewBox="0 0 64 64" width="64" height="64" >
<path d="M49.4295 24.3189C48.8546 23.5434 48.0109 23.0443 47.053 22.9098C46.0909 22.7733 45.1415 23.026 44.3734 23.6138L41.8699 25.5327L41.8688 25.5338L38.0735 28.368L35.3577 27.2864C40.2004 25.1136 43.5851 20.2698 43.5851 14.6462C43.5851 7.00017 37.3396 0.779327 29.6627 0.779327C21.9858 0.779327 15.7405 7.00017 15.7405 14.6462C15.7405 17.4175 16.5693 19.9945 17.9805 22.163L12.4529 22.115C12.4497 22.115 12.4466 22.115 12.4433 22.115C12.4262 22.115 12.4124 22.1235 12.3964 22.1247C12.2908 22.1289 12.1873 22.1503 12.0861 22.1865C12.0604 22.1962 12.0338 22.2015 12.0093 22.2132C11.9966 22.2185 11.9837 22.2195 11.9709 22.2259L5.50471 25.4185C5.50359 25.4185 5.50259 25.4185 5.50259 25.4195L1.71578 27.2405C1.67415 27.2586 1.63153 27.2831 1.5899 27.3109C0.0805013 28.3156 -0.433632 30.289 0.393131 31.9018C0.833638 32.7594 1.58352 33.391 2.50516 33.68C2.86042 33.7908 3.22305 33.8453 3.58356 33.8453C4.16282 33.8453 4.7367 33.7035 5.26246 33.423L8.038 31.9467L12.5661 29.6085L15.2797 29.5925L4.39632 40.4237C4.39532 40.4248 4.39419 40.4248 4.39307 40.4258L1.71565 43.0925C1.08314 43.7219 0.735387 44.557 0.735387 45.4478C0.735387 46.3374 1.08314 47.1747 1.71565 47.8052C2.36529 48.4516 3.21968 48.7758 4.07406 48.7758C4.92958 48.7758 5.78284 48.4516 6.4346 47.8052L9.06289 45.1875L12.5446 42.588L14.3462 44.3821L10.8229 47.8904C10.8219 47.8916 10.8208 47.8916 10.8197 47.8926L8.14225 50.5592C7.50974 51.1886 7.16199 52.0237 7.16199 52.9145C7.16199 53.8041 7.50974 54.6414 8.14225 55.2719C8.79189 55.9183 9.6474 56.2426 10.5018 56.2426C11.3562 56.2426 12.2117 55.9183 12.8623 55.2719L15.5407 52.6052L19.8256 48.3386C19.8267 48.3374 19.8267 48.3364 19.8277 48.3353L21.847 46.3353L21.8395 46.3278C21.8522 46.315 21.8703 46.3106 21.8832 46.2969L32.2151 34.9805L39.1571 35.9682C39.2072 35.9757 39.2574 35.9789 39.3075 35.9789C39.4366 35.9789 39.5614 35.948 39.6819 35.9021C39.7171 35.8894 39.748 35.8722 39.7811 35.8552C39.8195 35.836 39.86 35.8254 39.8964 35.8009L46.3231 31.5342C46.3466 31.5182 46.3594 31.4925 46.3817 31.4755C46.4074 31.4553 46.4394 31.4468 46.4627 31.4243L49.0056 29.0424C50.3288 27.8026 50.5112 25.7717 49.4295 24.3189ZM4.26082 31.5403C3.91419 31.7259 3.52056 31.7632 3.14405 31.6438C2.77067 31.5275 2.46779 31.2725 2.29066 30.928C1.96853 30.3008 2.15516 29.537 2.71942 29.1243L5.34671 27.8602L5.97922 29.7088L6.24485 30.4853L4.26082 31.5403ZM11.2551 27.8849L8.1585 29.4849L7.64762 27.9915L7.28074 26.9184L11.3342 24.9172L11.2551 27.8849ZM41.4539 14.644C41.4539 16.4808 41.0155 18.2132 40.256 19.763L31.8933 15.9646C31.8057 14.8179 31.2106 13.8142 30.3167 13.189L33.2448 3.46837C38.0001 4.98102 41.4539 9.41733 41.4539 14.644ZM17.876 14.644C17.876 8.17456 23.1646 2.91049 29.665 2.91049C30.1706 2.91049 30.6655 2.95311 31.1551 3.01499L28.2911 12.5224C28.2527 12.5213 28.2164 12.5106 28.1769 12.5106C26.1118 12.5106 24.4318 14.1853 24.4318 16.2441C24.4318 18.3027 26.1118 19.9775 28.1769 19.9775C29.5657 19.9775 30.7657 19.2106 31.4132 18.0883L39.1381 21.5978C36.9887 24.4906 33.5487 26.3776 29.6648 26.3776C23.1646 26.3776 17.876 21.1135 17.876 14.644ZM29.7887 16.2441C29.7887 17.1262 29.0655 17.8441 28.1769 17.8441C27.2884 17.8441 26.5652 17.1262 26.5652 16.2441C26.5652 15.3619 27.2884 14.644 28.1769 14.644C29.0655 14.644 29.7887 15.3619 29.7887 16.2441ZM4.9297 46.2925C4.4572 46.7608 3.69231 46.7598 3.22093 46.2936C2.99367 46.0664 2.86892 45.7668 2.86892 45.4478C2.86892 45.1299 2.99367 44.8301 3.22093 44.6051L5.14508 42.6882L6.84748 44.3832L4.9297 46.2925ZM11.3574 53.7594C10.8849 54.2276 10.119 54.2288 9.64753 53.7605C9.42027 53.5333 9.29552 53.2336 9.29552 52.9146C9.29552 52.5967 9.42027 52.297 9.64753 52.072L11.5729 50.1541L12.3783 50.9552L13.2765 51.8491L11.3574 53.7594ZM18.3208 46.8217C18.3197 46.8227 18.3187 46.8227 18.3175 46.8238L14.7879 50.3438L13.9825 49.5427L13.0843 48.6488L16.6108 45.1384C16.6108 45.1384 16.6108 45.1384 16.6108 45.1374C16.6119 45.1363 16.6129 45.1363 16.614 45.1353C16.694 45.0553 16.7441 44.9593 16.7933 44.8644C16.8071 44.8366 16.8338 44.8131 16.8455 44.7844C16.8786 44.7023 16.8839 44.6138 16.8968 44.5272C16.9031 44.4781 16.9245 44.4324 16.9245 44.3821C16.9245 44.3106 16.8989 44.2414 16.884 44.1709C16.8713 44.1069 16.8713 44.0417 16.8466 43.98C16.8061 43.8797 16.7368 43.7912 16.6643 43.7047C16.644 43.6812 16.6365 43.6514 16.6141 43.629C16.6141 43.629 16.6141 43.629 16.613 43.629C16.6119 43.628 16.6119 43.6257 16.6109 43.6247L13.397 40.4247C13.3628 40.3906 13.3191 40.3767 13.2807 40.3479C13.2242 40.3042 13.1698 40.2637 13.1068 40.2327C13.0461 40.2028 12.9842 40.1847 12.9202 40.1676C12.852 40.1483 12.7858 40.1334 12.7143 40.1281C12.6492 40.1238 12.5884 40.1302 12.5234 40.1377C12.4519 40.1462 12.3848 40.1558 12.3154 40.1782C12.2482 40.1996 12.1886 40.2326 12.1267 40.2678C12.0872 40.2902 12.0424 40.2977 12.0051 40.3254L8.45838 42.973L6.65673 41.1788L11.4547 36.4065L20.1759 44.9838L18.3208 46.8217ZM31.9584 32.7883C31.9275 32.7841 31.8986 32.7958 31.8678 32.7937C31.7899 32.7894 31.7153 32.7948 31.6374 32.8076C31.5766 32.8182 31.519 32.8299 31.4614 32.8502C31.3931 32.8737 31.3312 32.9057 31.2682 32.9441C31.2085 32.9803 31.1541 33.0187 31.1019 33.0667C31.0762 33.0891 31.0454 33.0998 31.0219 33.1253L21.6253 43.4167L12.9692 34.9035L18.6354 29.2671C19.0525 28.8511 19.0547 28.1759 18.6387 27.7577C18.4285 27.5476 18.1523 27.4441 17.876 27.4452V27.4442L13.4386 27.4709L13.4941 24.2559L19.7022 24.3093C22.2324 26.8971 25.7609 28.511 29.665 28.511C30.5396 28.511 31.393 28.4204 32.2239 28.2656C32.3039 28.3296 32.3828 28.3948 32.4831 28.4353L37.3025 30.3553L37.6075 31.8721L37.9637 33.6427L31.9584 32.7883ZM40.0406 33.1446L39.4145 30.0288L42.3073 27.8687L43.0647 28.8735L44.2007 30.3818L40.0406 33.1446ZM47.5479 27.4826L45.8721 29.0528L44.0097 26.5802L45.6726 25.3056C45.983 25.0667 46.3745 24.9696 46.7585 25.0197C47.1446 25.0741 47.486 25.2757 47.7185 25.5882C48.1516 26.1717 48.078 26.9856 47.5479 27.4826Z" fill="#2E2F42"/>
</symbol>



<symbol id="insta" viewBox="0 0 40 40" width="40" height="40" >
<path d="M40 19.9999C40 25.5228 37.7614 30.5228 34.1421 34.1421C30.5228 37.7614 25.5228 39.9999 20 39.9999C14.4772 39.9999 9.47715 37.7614 5.85786 34.1421C2.23858 30.5228 0 25.5228 0 19.9999C0 14.4771 2.23858 9.47709 5.85786 5.8578C9.47715 2.23852 14.4772 -6.10352e-05 20 -6.10352e-05C25.5228 -6.10352e-05 30.5228 2.23852 34.1421 5.8578C37.7614 9.47709 40 14.4771 40 19.9999Z" fill="#4D5AE5"/>
<g clip-path="url(#clip0_829177_81)">
<path d="M27.9843 16.704C27.9468 15.8538 27.8093 15.2694 27.6124 14.7629C27.4092 14.2253 27.0967 13.7441 26.6872 13.344C26.2871 12.9376 25.8026 12.6219 25.2713 12.4219C24.7619 12.225 24.1805 12.0875 23.3303 12.05C22.4738 12.0093 22.2019 11.9999 20.0296 11.9999C17.8573 11.9999 17.5854 12.0093 16.7321 12.0468C15.882 12.0843 15.2975 12.2219 14.7912 12.4187C14.2535 12.6219 13.7722 12.9344 13.3721 13.344C12.9658 13.7441 12.6501 14.2285 12.45 14.7599C12.2531 15.2694 12.1156 15.8507 12.0781 16.7008C12.0375 17.5573 12.0281 17.8292 12.0281 20.0015C12.0281 22.1738 12.0375 22.4457 12.075 23.299C12.1124 24.1492 12.25 24.7336 12.447 25.2401C12.6501 25.7777 12.9658 26.259 13.3721 26.6591C13.7722 27.0654 14.2567 27.3811 14.788 27.5811C15.2975 27.778 15.8788 27.9155 16.7291 27.953C17.5823 27.9906 17.8543 27.9999 20.0266 27.9999C22.1989 27.9999 22.4708 27.9906 23.3241 27.953C24.1742 27.9155 24.7587 27.778 25.265 27.5811C26.3403 27.1654 27.1904 26.3152 27.6062 25.2401C27.803 24.7306 27.9406 24.1492 27.9781 23.299C28.0156 22.4457 28.025 22.1738 28.025 20.0015C28.025 17.8292 28.0218 17.5573 27.9843 16.704ZM26.5435 23.2365C26.509 24.0179 26.3778 24.4399 26.2684 24.7212C25.9995 25.4182 25.4463 25.9714 24.7493 26.2403C24.468 26.3497 24.043 26.4809 23.2646 26.5152C22.4207 26.5528 22.1676 26.5621 20.0328 26.5621C17.898 26.5621 17.6417 26.5528 16.8009 26.5152C16.0195 26.4809 15.5975 26.3497 15.3162 26.2403C14.9693 26.1121 14.6536 25.9089 14.3973 25.6432C14.1316 25.3838 13.9285 25.0712 13.8003 24.7243C13.6909 24.443 13.5596 24.0179 13.5253 23.2397C13.4877 22.3958 13.4784 22.1425 13.4784 20.0077C13.4784 17.8729 13.4877 17.6166 13.5253 16.7759C13.5596 15.9945 13.6909 15.5725 13.8003 15.2912C13.9285 14.9442 14.1316 14.6286 14.4005 14.3722C14.6598 14.1066 14.9724 13.9034 15.3194 13.7753C15.6007 13.6659 16.0258 13.5347 16.804 13.5002C17.6479 13.4627 17.9012 13.4533 20.0359 13.4533C22.1738 13.4533 22.4269 13.4627 23.2678 13.5002C24.0492 13.5347 24.4712 13.6659 24.7525 13.7753C25.0993 13.9034 25.4151 14.1066 25.6714 14.3722C25.937 14.6317 26.1402 14.9442 26.2684 15.2912C26.3778 15.5725 26.509 15.9975 26.5435 16.7759C26.581 17.6198 26.5904 17.8729 26.5904 20.0077C26.5904 22.1425 26.581 22.3926 26.5435 23.2365Z" fill="#F4F4FD"/>
<path d="M20.0297 15.8913C17.7606 15.8913 15.9195 17.7322 15.9195 20.0015C15.9195 22.2707 17.7606 24.1117 20.0297 24.1117C22.2989 24.1117 24.1398 22.2707 24.1398 20.0015C24.1398 17.7322 22.2989 15.8913 20.0297 15.8913ZM20.0297 22.6676C18.5576 22.6676 17.3635 21.4737 17.3635 20.0015C17.3635 18.5293 18.5576 17.3353 20.0297 17.3353C21.5019 17.3353 22.6958 18.5293 22.6958 20.0015C22.6958 21.4737 21.5019 22.6676 20.0297 22.6676Z" fill="#F4F4FD"/>
<path d="M25.262 15.7288C25.262 16.2587 24.8324 16.6884 24.3024 16.6884C23.7725 16.6884 23.3428 16.2587 23.3428 15.7288C23.3428 15.1988 23.7725 14.7693 24.3024 14.7693C24.8324 14.7693 25.262 15.1988 25.262 15.7288Z" fill="#F4F4FD"/>
</g>
<defs>
<clipPath id="clip0_829177_81">
<rect width="16" height="16" fill="white" transform="translate(12 11.9999)"/>
</clipPath>
</defs>
</symbol>


<symbol id="twitter" viewBox="0 0 40 40" width="40" height="40" >
<path d="M40 19.9999C40 25.5228 37.7614 30.5228 34.1421 34.1421C30.5228 37.7614 25.5228 39.9999 20 39.9999C14.4772 39.9999 9.47715 37.7614 5.85786 34.1421C2.23858 30.5228 0 25.5228 0 19.9999C0 14.4771 2.23858 9.47709 5.85786 5.8578C9.47715 2.23852 14.4772 -6.10352e-05 20 -6.10352e-05C25.5228 -6.10352e-05 30.5228 2.23852 34.1421 5.8578C37.7614 9.47709 40 14.4771 40 19.9999Z" fill="#4D5AE5"/>
<g clip-path="url(#clip0_829177_87)">
<path d="M28 15.0389C27.405 15.2999 26.771 15.4729 26.11 15.5569C26.79 15.1509 27.309 14.5129 27.553 13.7439C26.919 14.1219 26.219 14.3889 25.473 14.5379C24.871 13.8969 24.013 13.4999 23.077 13.4999C21.261 13.4999 19.799 14.9739 19.799 16.7809C19.799 17.0409 19.821 17.2909 19.875 17.5289C17.148 17.3959 14.735 16.0889 13.114 14.0979C12.831 14.5889 12.665 15.1509 12.665 15.7559C12.665 16.8919 13.25 17.8989 14.122 18.4819C13.595 18.4719 13.078 18.3189 12.64 18.0779C12.64 18.0879 12.64 18.1009 12.64 18.1139C12.64 19.7079 13.777 21.0319 15.268 21.3369C15.001 21.4099 14.71 21.4449 14.408 21.4449C14.198 21.4449 13.986 21.4329 13.787 21.3889C14.212 22.6879 15.418 23.6429 16.852 23.6739C15.736 24.5469 14.319 25.0729 12.785 25.0729C12.516 25.0729 12.258 25.0609 12 25.0279C13.453 25.9649 15.175 26.4999 17.032 26.4999C23.068 26.4999 26.368 21.4999 26.368 17.1659C26.368 17.0209 26.363 16.8809 26.356 16.7419C27.007 16.2799 27.554 15.7029 28 15.0389Z" fill="#F4F4FD"/>
</g>
<defs>
<clipPath id="clip0_829177_87">
<rect width="16" height="16" fill="white" transform="translate(12 11.9999)"/>
</clipPath>
</defs>
</symbol>


<symbol id="face" viewBox="0 0 40 40" width="40" height="40" >
<path d="M40 19.9999C40 25.5228 37.7614 30.5228 34.1421 34.1421C30.5228 37.7614 25.5228 39.9999 20 39.9999C14.4772 39.9999 9.47715 37.7614 5.85786 34.1421C2.23858 30.5228 0 25.5228 0 19.9999C0 14.4771 2.23858 9.47709 5.85786 5.8578C9.47715 2.23852 14.4772 -6.10352e-05 20 -6.10352e-05C25.5228 -6.10352e-05 30.5228 2.23852 34.1421 5.8578C37.7614 9.47709 40 14.4771 40 19.9999Z" fill="#4D5AE5"/>
<g clip-path="url(#clip0_829177_93)">
<path d="M22.6647 14.6566H24.1254V12.1126C23.8734 12.0779 23.0067 11.9999 21.9974 11.9999C19.8914 11.9999 18.4487 13.3246 18.4487 15.7593V17.9999H16.1247V20.8439H18.4487V27.9999H21.298V20.8446H23.528L23.882 18.0006H21.2974V16.0413C21.298 15.2193 21.5194 14.6566 22.6647 14.6566Z" fill="#F4F4FD"/>
</g>
<defs>
<clipPath id="clip0_829177_93">
<rect width="16" height="16" fill="white" transform="translate(12 11.9999)"/>
</clipPath>
</defs>
</symbol>


<symbol id="inn" viewBox="0 0 40 40" width="40" height="40" >
<path d="M40 19.9999C40 25.5228 37.7614 30.5228 34.1421 34.1421C30.5228 37.7614 25.5228 39.9999 20 39.9999C14.4772 39.9999 9.47715 37.7614 5.85786 34.1421C2.23858 30.5228 0 25.5228 0 19.9999C0 14.4771 2.23858 9.47709 5.85786 5.8578C9.47715 2.23852 14.4772 -6.10352e-05 20 -6.10352e-05C25.5228 -6.10352e-05 30.5228 2.23852 34.1421 5.8578C37.7614 9.47709 40 14.4771 40 19.9999Z" fill="#4D5AE5"/>
<g clip-path="url(#clip0_829177_97)">
<path d="M27.9961 28V27.9993H28.0001V22.1313C28.0001 19.2606 27.3821 17.0493 24.0261 17.0493C22.4128 17.0493 21.3301 17.9346 20.8881 18.774H20.8414V17.3173H17.6594V27.9993H20.9728V22.71C20.9728 21.3173 21.2368 19.9706 22.9614 19.9706C24.6608 19.9706 24.6861 21.56 24.6861 22.7993V28H27.9961Z" fill="#F4F4FD"/>
<path d="M12.264 17.3179H15.5814V27.9999H12.264V17.3179Z" fill="#F4F4FD"/>
<path d="M13.9214 11.9999C12.8607 11.9999 12.0001 12.8606 12.0001 13.9213C12.0001 14.9819 12.8607 15.8606 13.9214 15.8606C14.9821 15.8606 15.8427 14.9819 15.8427 13.9213C15.8421 12.8606 14.9814 11.9999 13.9214 11.9999V11.9999Z" fill="#F4F4FD"/>
</g>
<defs>
<clipPath id="clip0_829177_97">
<rect width="16" height="16" fill="white" transform="translate(12.0001 11.9999)"/>
</clipPath>
</defs>
</symbol>

<symbol id="close-button" viewBox="0 0 40 40" width="24" height="24" >
<circle cx="12" cy="12" r="12" fill="#E7E9FC"/>
<circle cx="12" cy="12" r="11.5" stroke="black" stroke-opacity="0.1"/>
<g clip-path="url(#clip0_297083_8299)">
<path d="M16 8.80571L15.1943 8L12 11.1943L8.80571 8L8 8.80571L11.1943 12L8 15.1943L8.80571 16L12 12.8057L15.1943 16L16 15.1943L12.8057 12L16 8.80571Z" fill="#2E2F42"/>
</g>
<defs>
<clipPath id="clip0_297083_8299">
<rect width="8" height="8" fill="white" transform="translate(8 8)"/>
</clipPath>
</defs>
</symbol>

<symbol id="menu" width="18" height="16" viewBox="0 0 18 16">
<path fill-rule="evenodd" clip-rule="evenodd" d="M0.599609 2.00078C0.599609 1.68252 0.726038 1.3773 0.951081 1.15225C1.17612 0.92721 1.48135 0.800781 1.79961 0.800781H16.1996C16.5179 0.800781 16.8231 0.92721 17.0481 1.15225C17.2732 1.3773 17.3996 1.68252 17.3996 2.00078C17.3996 2.31904 17.2732 2.62427 17.0481 2.84931C16.8231 3.07435 16.5179 3.20078 16.1996 3.20078H1.79961C1.48135 3.20078 1.17612 3.07435 0.951081 2.84931C0.726038 2.62427 0.599609 2.31904 0.599609 2.00078Z" fill="#2F2F37"/>
<path fill-rule="evenodd" clip-rule="evenodd" d="M0.599609 8.00078C0.599609 7.68252 0.726038 7.3773 0.951081 7.15225C1.17612 6.92721 1.48135 6.80078 1.79961 6.80078H16.1996C16.5179 6.80078 16.8231 6.92721 17.0481 7.15225C17.2732 7.3773 17.3996 7.68252 17.3996 8.00078C17.3996 8.31904 17.2732 8.62427 17.0481 8.84931C16.8231 9.07435 16.5179 9.20078 16.1996 9.20078H1.79961C1.48135 9.20078 1.17612 9.07435 0.951081 8.84931C0.726038 8.62427 0.599609 8.31904 0.599609 8.00078Z" fill="#2F2F37"/>
<path fill-rule="evenodd" clip-rule="evenodd" d="M0.599609 14.0008C0.599609 13.6825 0.726038 13.3773 0.951081 13.1523C1.17612 12.9272 1.48135 12.8008 1.79961 12.8008H16.1996C16.5179 12.8008 16.8231 12.9272 17.0481 13.1523C17.2732 13.3773 17.3996 13.6825 17.3996 14.0008C17.3996 14.319 17.2732 14.6243 17.0481 14.8493C16.8231 15.0744 16.5179 15.2008 16.1996 15.2008H1.79961C1.48135 15.2008 1.17612 15.0744 0.951081 14.8493C0.726038 14.6243 0.599609 14.319 0.599609 14.0008Z" fill="#2F2F37"/>
</symbol>




</svg>

